<mxfile host="app.diagrams.net" modified="2021-01-04T19:52:08.804Z" agent="5.0 (Macintosh; Intel Mac OS X 11_1_0) AppleWebKit/537.36 (KHTML, like Gecko) Chrome/87.0.4280.88 Safari/537.36" etag="_28dv-94PhN9IjftwKkR" version="14.1.8" type="github">
  <diagram id="llM6o6Dhp4E8ifdp-irI" name="Page-1">
    <mxGraphModel dx="2065" dy="1044" grid="1" gridSize="10" guides="1" tooltips="1" connect="1" arrows="1" fold="1" page="1" pageScale="1" pageWidth="827" pageHeight="1169" math="0" shadow="0">
      <root>
        <mxCell id="0" />
        <mxCell id="1" parent="0" />
        <mxCell id="epytFXtEuozFpQbF-66j-1" value="&lt;br&gt;&amp;lt;queue&amp;gt;&lt;br&gt;jms.queue.communications.in.{tlcId}" style="strokeWidth=2;html=1;shape=mxgraph.flowchart.direct_data;whiteSpace=wrap;" vertex="1" parent="1">
          <mxGeometry x="340" y="190" width="180" height="60" as="geometry" />
        </mxCell>
        <mxCell id="epytFXtEuozFpQbF-66j-2" value="&amp;lt;topic&amp;gt;&lt;br&gt;jms.topic.ipc.{tlcId}" style="strokeWidth=2;html=1;shape=mxgraph.flowchart.direct_data;whiteSpace=wrap;" vertex="1" parent="1">
          <mxGeometry x="340" y="320" width="180" height="60" as="geometry" />
        </mxCell>
        <mxCell id="epytFXtEuozFpQbF-66j-3" value="&amp;lt;producer&amp;gt;&lt;br&gt;HeartbeatSender" style="rounded=0;whiteSpace=wrap;html=1;" vertex="1" parent="1">
          <mxGeometry x="70" y="280" width="120" height="60" as="geometry" />
        </mxCell>
        <mxCell id="epytFXtEuozFpQbF-66j-4" value="&lt;b&gt;Communications&lt;/b&gt;" style="text;html=1;strokeColor=none;fillColor=none;align=left;verticalAlign=middle;whiteSpace=wrap;rounded=0;" vertex="1" parent="1">
          <mxGeometry x="70" y="130" width="110" height="20" as="geometry" />
        </mxCell>
        <mxCell id="epytFXtEuozFpQbF-66j-5" value="" style="endArrow=classic;html=1;exitX=1;exitY=0.5;exitDx=0;exitDy=0;entryX=0;entryY=0.5;entryDx=0;entryDy=0;entryPerimeter=0;" edge="1" parent="1" source="epytFXtEuozFpQbF-66j-3" target="epytFXtEuozFpQbF-66j-2">
          <mxGeometry width="50" height="50" relative="1" as="geometry">
            <mxPoint x="190" y="230" as="sourcePoint" />
            <mxPoint x="240" y="180" as="targetPoint" />
          </mxGeometry>
        </mxCell>
        <mxCell id="epytFXtEuozFpQbF-66j-6" value="&lt;div style=&quot;text-align: justify&quot;&gt;The topic jms.topic.ipc.{tlcId} processes multiple types of messages:&lt;/div&gt;&lt;div style=&quot;text-align: justify&quot;&gt;- CommunicationsHeartbeatMessage&lt;/div&gt;&lt;div style=&quot;text-align: justify&quot;&gt;- all subtypes of TlcOutputMessage&lt;/div&gt;&lt;div style=&quot;text-align: justify&quot;&gt;&lt;br&gt;&lt;/div&gt;&lt;div style=&quot;text-align: justify&quot;&gt;&lt;br&gt;&lt;/div&gt;" style="text;html=1;strokeColor=none;fillColor=none;align=left;verticalAlign=middle;whiteSpace=wrap;rounded=0;" vertex="1" parent="1">
          <mxGeometry x="70" y="560" width="680" height="210" as="geometry" />
        </mxCell>
        <mxCell id="epytFXtEuozFpQbF-66j-7" value="&amp;lt;Consumer&amp;gt;&lt;br&gt;JmsReceiver" style="rounded=0;whiteSpace=wrap;html=1;" vertex="1" parent="1">
          <mxGeometry x="680" y="160" width="120" height="60" as="geometry" />
        </mxCell>
        <mxCell id="epytFXtEuozFpQbF-66j-8" value="&lt;b&gt;Communications&lt;/b&gt;" style="text;html=1;strokeColor=none;fillColor=none;align=left;verticalAlign=middle;whiteSpace=wrap;rounded=0;" vertex="1" parent="1">
          <mxGeometry x="680" y="130" width="110" height="20" as="geometry" />
        </mxCell>
        <mxCell id="epytFXtEuozFpQbF-66j-9" value="" style="endArrow=classic;html=1;exitX=0;exitY=0.5;exitDx=0;exitDy=0;entryX=1;entryY=0.5;entryDx=0;entryDy=0;entryPerimeter=0;" edge="1" parent="1" source="epytFXtEuozFpQbF-66j-7" target="epytFXtEuozFpQbF-66j-1">
          <mxGeometry width="50" height="50" relative="1" as="geometry">
            <mxPoint x="390" y="510" as="sourcePoint" />
            <mxPoint x="440" y="460" as="targetPoint" />
          </mxGeometry>
        </mxCell>
        <mxCell id="epytFXtEuozFpQbF-66j-10" value="&amp;lt;Consumer&amp;gt;&lt;br&gt;JmsIpcReceiver" style="rounded=0;whiteSpace=wrap;html=1;" vertex="1" parent="1">
          <mxGeometry x="680" y="280" width="120" height="60" as="geometry" />
        </mxCell>
        <mxCell id="epytFXtEuozFpQbF-66j-11" value="" style="endArrow=classic;html=1;exitX=0;exitY=0.5;exitDx=0;exitDy=0;entryX=1;entryY=0.5;entryDx=0;entryDy=0;entryPerimeter=0;" edge="1" parent="1" source="epytFXtEuozFpQbF-66j-10" target="epytFXtEuozFpQbF-66j-2">
          <mxGeometry width="50" height="50" relative="1" as="geometry">
            <mxPoint x="690" y="200" as="sourcePoint" />
            <mxPoint x="530" y="230" as="targetPoint" />
          </mxGeometry>
        </mxCell>
      </root>
    </mxGraphModel>
  </diagram>
</mxfile>
